<?xml version="1.0" encoding="UTF-8"?> <svg xmlns="http://www.w3.org/2000/svg" xmlns:xlink="http://www.w3.org/1999/xlink" width="300" zoomAndPan="magnify" viewBox="0 0 224.87999 112.499997" height="150" preserveAspectRatio="xMidYMid meet" version="1.0"><path fill="#312783" d="M 142.222656 52.554688 C 141.433594 52.109375 140.828125 51.488281 140.402344 50.691406 C 139.972656 49.902344 139.765625 48.980469 139.765625 47.949219 C 139.765625 46.914062 139.972656 46.015625 140.398438 45.226562 C 140.820312 44.4375 141.421875 43.816406 142.203125 43.371094 C 142.984375 42.925781 143.890625 42.707031 144.921875 42.707031 C 146.1875 42.707031 147.257812 43.027344 148.140625 43.652344 C 149.023438 44.28125 149.609375 45.171875 149.890625 46.335938 L 148.578125 46.335938 C 148.324219 45.503906 147.878906 44.871094 147.238281 44.421875 C 146.597656 43.976562 145.832031 43.753906 144.9375 43.753906 C 144.160156 43.753906 143.472656 43.921875 142.875 44.261719 C 142.277344 44.597656 141.8125 45.085938 141.46875 45.71875 C 141.128906 46.363281 140.957031 47.105469 140.957031 47.960938 C 140.957031 48.820312 141.125 49.609375 141.46875 50.253906 C 141.8125 50.894531 142.28125 51.375 142.894531 51.703125 C 143.507812 52.035156 144.207031 52.203125 145.007812 52.203125 C 145.8125 52.203125 146.449219 52.054688 147.042969 51.75 C 147.628906 51.449219 148.09375 51.023438 148.425781 50.476562 C 148.761719 49.929688 148.941406 49.285156 148.96875 48.570312 L 149.347656 49.082031 L 145.238281 49.082031 L 145.238281 48.042969 L 150.207031 48.042969 C 150.179688 49.082031 149.945312 50.003906 149.515625 50.785156 C 149.082031 51.570312 148.476562 52.175781 147.703125 52.601562 C 146.929688 53.027344 146.027344 53.242188 144.996094 53.242188 C 143.964844 53.242188 143.015625 53.019531 142.226562 52.574219 Z M 142.222656 52.554688 " fill-opacity="1" fill-rule="nonzero"></path><path fill="#312783" d="M 152.417969 52.878906 C 152.28125 52.746094 152.214844 52.570312 152.214844 52.351562 L 152.214844 42.855469 L 159.164062 42.855469 L 159.164062 43.910156 L 152.941406 43.910156 L 153.378906 43.648438 L 153.378906 52.296875 L 152.941406 52.035156 L 159.164062 52.035156 L 159.164062 53.089844 L 152.941406 53.089844 C 152.726562 53.089844 152.550781 53.019531 152.417969 52.886719 Z M 153.265625 47.328125 L 158.550781 47.328125 L 158.550781 48.382812 L 153.265625 48.382812 Z M 153.265625 47.328125 " fill-opacity="1" fill-rule="nonzero"></path><path fill="#312783" d="M 168.882812 53.0625 C 168.746094 52.980469 168.613281 52.851562 168.472656 52.691406 L 168.457031 52.664062 L 161.816406 43.898438 L 162.519531 43.871094 L 162.519531 53.089844 L 161.351562 53.089844 L 161.351562 43.492188 C 161.351562 43.25 161.414062 43.066406 161.527344 42.945312 C 161.644531 42.824219 161.796875 42.761719 161.992188 42.761719 C 162.109375 42.761719 162.222656 42.796875 162.328125 42.871094 C 162.4375 42.945312 162.550781 43.058594 162.679688 43.214844 L 169.617188 52.34375 L 168.890625 52.320312 L 168.890625 42.863281 L 170.054688 42.863281 L 170.054688 52.421875 C 170.054688 52.664062 169.988281 52.851562 169.859375 52.988281 C 169.730469 53.121094 169.546875 53.191406 169.328125 53.191406 C 169.171875 53.191406 169.023438 53.148438 168.890625 53.066406 Z M 168.882812 53.0625 " fill-opacity="1" fill-rule="nonzero"></path><path fill="#312783" d="M 175.117188 43.910156 L 171.9375 43.910156 L 171.9375 42.855469 L 179.425781 42.855469 L 179.425781 43.910156 L 176.28125 43.910156 L 176.28125 53.089844 L 175.117188 53.089844 Z M 175.117188 43.910156 " fill-opacity="1" fill-rule="nonzero"></path><path fill="#312783" d="M 181.527344 52.878906 C 181.394531 52.746094 181.328125 52.570312 181.328125 52.351562 L 181.328125 42.855469 L 188.277344 42.855469 L 188.277344 43.910156 L 182.054688 43.910156 L 182.492188 43.648438 L 182.492188 52.296875 L 182.054688 52.035156 L 188.277344 52.035156 L 188.277344 53.089844 L 182.054688 53.089844 C 181.839844 53.089844 181.664062 53.019531 181.527344 52.886719 Z M 182.371094 47.328125 L 187.65625 47.328125 L 187.65625 48.382812 L 182.371094 48.382812 Z M 182.371094 47.328125 " fill-opacity="1" fill-rule="nonzero"></path><path fill="#312783" d="M 195.886719 52.554688 C 195.105469 52.109375 194.503906 51.488281 194.082031 50.691406 C 193.65625 49.902344 193.449219 48.980469 193.449219 47.949219 C 193.449219 46.914062 193.65625 46.015625 194.082031 45.226562 C 194.503906 44.4375 195.105469 43.816406 195.886719 43.371094 C 196.667969 42.925781 197.574219 42.707031 198.605469 42.707031 C 199.636719 42.707031 200.539062 42.929688 201.3125 43.371094 C 202.085938 43.816406 202.6875 44.429688 203.113281 45.226562 C 203.535156 46.023438 203.746094 46.929688 203.746094 47.949219 C 203.746094 48.96875 203.535156 49.894531 203.113281 50.691406 C 202.6875 51.488281 202.085938 52.109375 201.3125 52.554688 C 200.53125 53 199.628906 53.222656 198.605469 53.222656 C 197.582031 53.222656 196.671875 53 195.886719 52.554688 Z M 200.6875 51.691406 C 201.28125 51.351562 201.738281 50.875 202.0625 50.238281 C 202.382812 49.605469 202.546875 48.855469 202.546875 47.988281 C 202.546875 47.125 202.382812 46.382812 202.0625 45.742188 C 201.738281 45.097656 201.28125 44.605469 200.6875 44.269531 C 200.09375 43.929688 199.402344 43.753906 198.605469 43.753906 C 197.8125 43.753906 197.113281 43.921875 196.519531 44.269531 C 195.917969 44.613281 195.460938 45.097656 195.136719 45.742188 C 194.816406 46.382812 194.648438 47.132812 194.648438 47.988281 C 194.648438 48.847656 194.808594 49.605469 195.136719 50.238281 C 195.460938 50.875 195.925781 51.351562 196.519531 51.691406 C 197.117188 52.027344 197.8125 52.195312 198.605469 52.195312 C 199.402344 52.195312 200.09375 52.027344 200.6875 51.691406 Z M 196.492188 54.371094 L 194.828125 54.851562 L 194.828125 54.007812 L 196.53125 53.527344 L 202.40625 54.445312 L 202.40625 55.425781 Z M 196.492188 54.371094 " fill-opacity="1" fill-rule="nonzero"></path><path fill="#312783" d="M 207.238281 52.648438 C 206.648438 52.265625 206.230469 51.746094 205.988281 51.082031 C 205.746094 50.421875 205.625 49.652344 205.625 48.753906 L 205.625 42.851562 L 206.789062 42.851562 L 206.789062 48.589844 C 206.789062 49.355469 206.875 49.996094 207.042969 50.523438 C 207.210938 51.050781 207.507812 51.460938 207.933594 51.75 C 208.355469 52.042969 208.929688 52.191406 209.65625 52.191406 C 210.382812 52.191406 210.957031 52.042969 211.375 51.75 C 211.792969 51.460938 212.089844 51.050781 212.257812 50.523438 C 212.425781 49.996094 212.511719 49.355469 212.511719 48.589844 L 212.511719 42.851562 L 213.675781 42.851562 L 213.675781 48.753906 C 213.675781 49.652344 213.554688 50.425781 213.320312 51.082031 C 213.085938 51.738281 212.667969 52.265625 212.074219 52.648438 C 211.480469 53.035156 210.675781 53.222656 209.65625 53.222656 C 208.640625 53.222656 207.832031 53.035156 207.238281 52.648438 Z M 207.238281 52.648438 " fill-opacity="1" fill-rule="nonzero"></path><path fill="#312783" d="M 216.503906 52.878906 C 216.371094 52.746094 216.304688 52.570312 216.304688 52.351562 L 216.304688 42.855469 L 223.253906 42.855469 L 223.253906 43.910156 L 217.03125 43.910156 L 217.46875 43.648438 L 217.46875 52.296875 L 217.03125 52.035156 L 223.253906 52.035156 L 223.253906 53.089844 L 217.03125 53.089844 C 216.816406 53.089844 216.640625 53.019531 216.503906 52.886719 Z M 217.355469 47.328125 L 222.640625 47.328125 L 222.640625 48.382812 L 217.355469 48.382812 Z M 217.355469 47.328125 " fill-opacity="1" fill-rule="nonzero"></path><path fill="#312783" d="M 145.332031 69.613281 C 145.21875 69.546875 145.125 69.40625 145.050781 69.191406 L 141.769531 60.761719 L 141.871094 60.734375 L 141.21875 69.648438 L 140.066406 69.648438 L 140.765625 60.316406 C 140.792969 59.976562 140.894531 59.722656 141.058594 59.566406 C 141.21875 59.410156 141.441406 59.324219 141.710938 59.324219 C 141.886719 59.324219 142.027344 59.347656 142.140625 59.402344 C 142.253906 59.457031 142.34375 59.53125 142.417969 59.632812 C 142.492188 59.726562 142.550781 59.863281 142.613281 60.023438 L 145.933594 68.542969 L 145.582031 68.542969 L 148.886719 60.023438 C 148.957031 59.847656 149.035156 59.714844 149.132812 59.605469 C 149.226562 59.503906 149.320312 59.429688 149.425781 59.398438 C 149.535156 59.355469 149.65625 59.335938 149.789062 59.335938 C 150.039062 59.335938 150.25 59.410156 150.417969 59.550781 C 150.585938 59.695312 150.679688 59.9375 150.707031 60.269531 L 151.40625 69.648438 L 150.242188 69.648438 L 149.601562 60.734375 L 149.691406 60.773438 L 146.445312 69.191406 C 146.355469 69.390625 146.269531 69.535156 146.175781 69.609375 C 146.082031 69.683594 145.9375 69.714844 145.742188 69.714844 C 145.574219 69.714844 145.441406 69.683594 145.324219 69.613281 Z M 145.332031 69.613281 " fill-opacity="1" fill-rule="nonzero"></path><path fill="#312783" d="M 155.441406 69.117188 C 154.660156 68.667969 154.058594 68.046875 153.636719 67.25 C 153.210938 66.460938 153.003906 65.542969 153.003906 64.507812 C 153.003906 63.476562 153.210938 62.578125 153.636719 61.789062 C 154.058594 60.996094 154.660156 60.375 155.441406 59.929688 C 156.222656 59.484375 157.132812 59.269531 158.160156 59.269531 C 159.191406 59.269531 160.09375 59.492188 160.867188 59.929688 C 161.644531 60.375 162.242188 60.992188 162.667969 61.789062 C 163.089844 62.585938 163.300781 63.488281 163.300781 64.507812 C 163.300781 65.527344 163.089844 66.453125 162.667969 67.25 C 162.242188 68.046875 161.644531 68.667969 160.867188 69.117188 C 160.085938 69.5625 159.183594 69.785156 158.160156 69.785156 C 157.136719 69.785156 156.230469 69.5625 155.441406 69.117188 Z M 160.242188 68.25 C 160.835938 67.914062 161.292969 67.433594 161.617188 66.796875 C 161.9375 66.164062 162.101562 65.414062 162.101562 64.550781 C 162.101562 63.683594 161.9375 62.941406 161.617188 62.300781 C 161.292969 61.660156 160.835938 61.167969 160.242188 60.828125 C 159.648438 60.492188 158.957031 60.316406 158.160156 60.316406 C 157.367188 60.316406 156.667969 60.484375 156.074219 60.828125 C 155.472656 61.171875 155.015625 61.660156 154.691406 62.300781 C 154.371094 62.941406 154.203125 63.691406 154.203125 64.550781 C 154.203125 65.40625 154.363281 66.164062 154.691406 66.796875 C 155.015625 67.433594 155.480469 67.914062 156.074219 68.25 C 156.671875 68.589844 157.367188 68.757812 158.160156 68.757812 C 158.957031 68.757812 159.648438 68.589844 160.242188 68.25 Z M 160.242188 68.25 " fill-opacity="1" fill-rule="nonzero"></path><path fill="#312783" d="M 168.039062 69.683594 C 167.933594 69.640625 167.839844 69.5625 167.75 69.453125 C 167.664062 69.34375 167.582031 69.195312 167.5 69 L 163.71875 59.417969 L 164.96875 59.417969 L 168.425781 68.417969 L 171.890625 59.417969 L 173.15625 59.417969 L 169.351562 69 C 169.273438 69.195312 169.191406 69.34375 169.097656 69.453125 C 169.003906 69.5625 168.902344 69.636719 168.800781 69.683594 C 168.699219 69.730469 168.566406 69.75 168.425781 69.75 C 168.28125 69.75 168.15625 69.730469 168.046875 69.683594 Z M 168.039062 69.683594 " fill-opacity="1" fill-rule="nonzero"></path><path fill="#312783" d="M 174.957031 69.4375 C 174.820312 69.304688 174.753906 69.128906 174.753906 68.914062 L 174.753906 59.417969 L 181.703125 59.417969 L 181.703125 60.46875 L 175.480469 60.46875 L 175.917969 60.207031 L 175.917969 68.859375 L 175.480469 68.59375 L 181.703125 68.59375 L 181.703125 69.648438 L 175.480469 69.648438 C 175.265625 69.648438 175.089844 69.582031 174.957031 69.445312 Z M 175.804688 63.886719 L 181.089844 63.886719 L 181.089844 64.941406 L 175.804688 64.941406 Z M 175.804688 63.886719 " fill-opacity="1" fill-rule="nonzero"></path><path fill="#312783" d="M 189.3125 69.117188 C 188.53125 68.667969 187.933594 68.046875 187.507812 67.25 C 187.085938 66.460938 186.875 65.542969 186.875 64.507812 C 186.875 63.476562 187.085938 62.578125 187.507812 61.789062 C 187.933594 60.996094 188.53125 60.375 189.3125 59.929688 C 190.09375 59.484375 191.003906 59.269531 192.035156 59.269531 C 193.0625 59.269531 193.964844 59.492188 194.742188 59.929688 C 195.515625 60.375 196.113281 60.992188 196.539062 61.789062 C 196.964844 62.585938 197.171875 63.488281 197.171875 64.507812 C 197.171875 65.527344 196.964844 66.453125 196.539062 67.25 C 196.113281 68.046875 195.515625 68.667969 194.742188 69.117188 C 193.960938 69.5625 193.058594 69.785156 192.035156 69.785156 C 191.011719 69.785156 190.101562 69.5625 189.3125 69.117188 Z M 194.113281 68.25 C 194.707031 67.914062 195.164062 67.433594 195.488281 66.796875 C 195.8125 66.164062 195.972656 65.414062 195.972656 64.550781 C 195.972656 63.683594 195.8125 62.941406 195.488281 62.300781 C 195.164062 61.660156 194.707031 61.167969 194.113281 60.828125 C 193.523438 60.492188 192.828125 60.316406 192.035156 60.316406 C 191.238281 60.316406 190.539062 60.484375 189.945312 60.828125 C 189.347656 61.171875 188.890625 61.660156 188.566406 62.300781 C 188.242188 62.941406 188.074219 63.691406 188.074219 64.550781 C 188.074219 65.40625 188.234375 66.164062 188.566406 66.796875 C 188.890625 67.433594 189.355469 67.914062 189.945312 68.25 C 190.546875 68.589844 191.238281 68.757812 192.035156 68.757812 C 192.828125 68.757812 193.523438 68.589844 194.113281 68.25 Z M 194.113281 68.25 " fill-opacity="1" fill-rule="nonzero"></path><path fill="#312783" d="M 142.203125 85.675781 C 141.421875 85.230469 140.820312 84.609375 140.398438 83.8125 C 139.972656 83.019531 139.765625 82.101562 139.765625 81.070312 C 139.765625 80.035156 139.972656 79.136719 140.398438 78.347656 C 140.820312 77.558594 141.421875 76.9375 142.203125 76.492188 C 142.984375 76.042969 143.890625 75.828125 144.921875 75.828125 C 145.796875 75.828125 146.578125 75.992188 147.273438 76.308594 C 147.964844 76.632812 148.539062 77.085938 148.988281 77.664062 C 149.441406 78.253906 149.757812 78.933594 149.933594 79.726562 L 148.691406 79.726562 C 148.457031 78.828125 148.011719 78.125 147.347656 77.617188 C 146.679688 77.113281 145.871094 76.863281 144.921875 76.863281 C 144.132812 76.863281 143.441406 77.039062 142.847656 77.382812 C 142.25 77.726562 141.785156 78.21875 141.453125 78.859375 C 141.125 79.496094 140.957031 80.246094 140.957031 81.101562 C 140.957031 81.960938 141.125 82.71875 141.453125 83.351562 C 141.785156 83.988281 142.25 84.464844 142.855469 84.804688 C 143.453125 85.140625 144.148438 85.3125 144.921875 85.3125 C 145.871094 85.3125 146.6875 85.0625 147.351562 84.5625 C 148.019531 84.0625 148.476562 83.367188 148.707031 82.480469 L 149.933594 82.480469 C 149.757812 83.257812 149.449219 83.941406 148.988281 84.527344 C 148.539062 85.113281 147.964844 85.5625 147.273438 85.878906 C 146.578125 86.195312 145.789062 86.351562 144.921875 86.351562 C 143.890625 86.351562 142.988281 86.128906 142.203125 85.683594 Z M 142.203125 85.675781 " fill-opacity="1" fill-rule="nonzero"></path><path fill="#312783" d="M 153.265625 85.769531 C 152.671875 85.386719 152.253906 84.863281 152.011719 84.203125 C 151.769531 83.542969 151.648438 82.769531 151.648438 81.875 L 151.648438 75.96875 L 152.816406 75.96875 L 152.816406 81.710938 C 152.816406 82.472656 152.902344 83.117188 153.070312 83.644531 C 153.238281 84.167969 153.535156 84.582031 153.960938 84.871094 C 154.382812 85.164062 154.957031 85.3125 155.683594 85.3125 C 156.410156 85.3125 156.984375 85.164062 157.402344 84.871094 C 157.816406 84.582031 158.113281 84.167969 158.28125 83.644531 C 158.449219 83.117188 158.539062 82.472656 158.539062 81.710938 L 158.539062 75.96875 L 159.703125 75.96875 L 159.703125 81.875 C 159.703125 82.769531 159.582031 83.546875 159.347656 84.203125 C 159.109375 84.859375 158.695312 85.386719 158.101562 85.769531 C 157.507812 86.15625 156.699219 86.34375 155.683594 86.34375 C 154.667969 86.34375 153.859375 86.15625 153.265625 85.769531 Z M 153.265625 85.769531 " fill-opacity="1" fill-rule="nonzero"></path><path fill="#312783" d="M 162.472656 75.976562 L 163.636719 75.976562 L 163.636719 86.203125 L 162.472656 86.203125 Z M 162.472656 75.976562 L 163.636719 75.976562 L 163.636719 77.015625 L 162.472656 77.015625 Z M 162.472656 85.164062 L 163.636719 85.164062 L 163.636719 86.203125 L 162.472656 86.203125 Z M 162.472656 85.164062 " fill-opacity="1" fill-rule="nonzero"></path><path fill="#312783" d="M 166.699219 75.976562 L 169.792969 75.976562 C 170.742188 75.976562 171.65625 76.140625 172.523438 76.457031 C 173.394531 76.773438 174.113281 77.320312 174.695312 78.078125 C 175.273438 78.832031 175.5625 79.832031 175.5625 81.070312 C 175.5625 82.304688 175.273438 83.378906 174.695312 84.140625 C 174.113281 84.90625 173.394531 85.4375 172.53125 85.742188 C 171.671875 86.046875 170.753906 86.195312 169.792969 86.195312 L 166.699219 86.195312 L 166.699219 75.96875 Z M 171.980469 84.8125 C 172.644531 84.589844 173.207031 84.175781 173.671875 83.582031 C 174.128906 82.988281 174.363281 82.171875 174.363281 81.128906 C 174.363281 80.089844 174.128906 79.257812 173.664062 78.652344 C 173.199219 78.042969 172.632812 77.617188 171.964844 77.382812 C 171.300781 77.144531 170.621094 77.023438 169.917969 77.023438 L 167.863281 77.023438 L 167.863281 85.148438 L 169.917969 85.148438 C 170.625 85.148438 171.3125 85.035156 171.980469 84.8125 Z M 171.980469 84.8125 " fill-opacity="1" fill-rule="nonzero"></path><path fill="#312783" d="M 179.84375 76.167969 C 179.9375 76.058594 180.039062 75.984375 180.148438 75.9375 C 180.261719 75.890625 180.390625 75.867188 180.53125 75.867188 C 180.671875 75.867188 180.800781 75.890625 180.910156 75.9375 C 181.015625 75.976562 181.117188 76.058594 181.207031 76.167969 C 181.292969 76.273438 181.378906 76.421875 181.449219 76.605469 L 185.0625 86.203125 L 183.839844 86.203125 L 180.53125 77.097656 L 177.199219 86.203125 L 175.960938 86.203125 L 179.601562 76.605469 C 179.671875 76.421875 179.75 76.273438 179.84375 76.167969 Z M 177.710938 82.332031 L 183.292969 82.332031 L 183.292969 83.339844 L 177.710938 83.339844 Z M 177.710938 82.332031 " fill-opacity="1" fill-rule="nonzero"></path><path fill="#312783" d="M 186.667969 75.976562 L 189.757812 75.976562 C 190.707031 75.976562 191.625 76.140625 192.492188 76.457031 C 193.359375 76.773438 194.082031 77.320312 194.660156 78.078125 C 195.238281 78.832031 195.527344 79.832031 195.527344 81.070312 C 195.527344 82.304688 195.238281 83.378906 194.660156 84.140625 C 194.082031 84.90625 193.359375 85.4375 192.5 85.742188 C 191.636719 86.046875 190.71875 86.195312 189.757812 86.195312 L 186.667969 86.195312 L 186.667969 75.96875 Z M 191.953125 84.8125 C 192.621094 84.589844 193.179688 84.175781 193.644531 83.582031 C 194.101562 82.988281 194.335938 82.171875 194.335938 81.128906 C 194.335938 80.089844 194.101562 79.257812 193.636719 78.652344 C 193.171875 78.042969 192.605469 77.617188 191.941406 77.382812 C 191.273438 77.144531 190.59375 77.023438 189.890625 77.023438 L 187.839844 77.023438 L 187.839844 85.148438 L 189.890625 85.148438 C 190.597656 85.148438 191.285156 85.035156 191.953125 84.8125 Z M 191.953125 84.8125 " fill-opacity="1" fill-rule="nonzero"></path><path fill="#312783" d="M 199.394531 85.675781 C 198.613281 85.230469 198.015625 84.609375 197.589844 83.8125 C 197.164062 83.019531 196.957031 82.101562 196.957031 81.070312 C 196.957031 80.035156 197.164062 79.136719 197.589844 78.347656 C 198.015625 77.558594 198.613281 76.9375 199.394531 76.492188 C 200.175781 76.042969 201.085938 75.828125 202.113281 75.828125 C 203.144531 75.828125 204.046875 76.050781 204.820312 76.492188 C 205.597656 76.9375 206.195312 77.550781 206.621094 78.347656 C 207.042969 79.144531 207.253906 80.050781 207.253906 81.070312 C 207.253906 82.089844 207.042969 83.015625 206.621094 83.8125 C 206.195312 84.609375 205.597656 85.230469 204.820312 85.675781 C 204.039062 86.121094 203.136719 86.34375 202.113281 86.34375 C 201.089844 86.34375 200.183594 86.121094 199.394531 85.675781 Z M 204.195312 84.804688 C 204.789062 84.464844 205.246094 83.988281 205.570312 83.351562 C 205.894531 82.71875 206.054688 81.96875 206.054688 81.101562 C 206.054688 80.238281 205.894531 79.496094 205.570312 78.855469 C 205.246094 78.210938 204.789062 77.71875 204.195312 77.382812 C 203.601562 77.042969 202.910156 76.867188 202.113281 76.867188 C 201.320312 76.867188 200.621094 77.039062 200.027344 77.382812 C 199.429688 77.726562 198.96875 78.210938 198.648438 78.855469 C 198.324219 79.496094 198.15625 80.246094 198.15625 81.101562 C 198.15625 81.960938 198.316406 82.71875 198.648438 83.351562 C 198.96875 83.988281 199.433594 84.464844 200.027344 84.804688 C 200.625 85.140625 201.320312 85.3125 202.113281 85.3125 C 202.910156 85.3125 203.601562 85.140625 204.195312 84.804688 Z M 204.195312 84.804688 " fill-opacity="1" fill-rule="nonzero"></path><path fill="#dd9c00" d="M 139.042969 24.886719 L 150.328125 24.886719 L 150.328125 36.203125 L 139.042969 36.203125 Z M 139.042969 24.886719 " fill-opacity="1" fill-rule="nonzero"></path><path fill="#312783" d="M 37 76.167969 C 35.789062 76.300781 34.710938 76.316406 33.519531 76.316406 C 22.113281 76.316406 12.867188 67.347656 12.867188 56.289062 C 12.867188 45.234375 22.113281 36.265625 33.519531 36.265625 C 34.707031 36.265625 35.808594 36.230469 37 36.332031 L 37 25.40625 C 35.855469 25.285156 34.699219 25.222656 33.519531 25.222656 C 15.824219 25.222656 1.472656 39.136719 1.472656 56.296875 C 1.472656 73.457031 15.816406 87.371094 33.519531 87.371094 C 34.699219 87.371094 35.855469 87.304688 37 87.1875 Z M 37 76.167969 " fill-opacity="1" fill-rule="nonzero"></path><path fill="#312783" d="M 79.917969 54.488281 C 84.691406 52.582031 86.328125 46.773438 86.328125 41.351562 C 86.328125 32.542969 78.746094 25.335938 69.472656 25.335938 L 47.964844 25.335938 L 47.964844 87.363281 L 72.488281 87.363281 C 82.199219 87.363281 90.148438 79.476562 90.148438 69.839844 C 90.148438 63.238281 85.824219 56.25 79.925781 54.480469 Z M 59.136719 36.453125 L 67.082031 36.453125 C 70.980469 36.453125 74.171875 39.472656 74.171875 43.152344 C 74.171875 46.835938 70.980469 49.855469 67.082031 49.855469 L 59.136719 49.855469 L 59.136719 36.449219 Z M 69.992188 75.992188 L 59.144531 75.992188 L 59.144531 61.011719 L 69.992188 61.011719 C 74.289062 61.011719 77.804688 64.382812 77.804688 68.5 C 77.804688 72.621094 74.289062 75.992188 69.992188 75.992188 Z M 69.992188 75.992188 " fill-opacity="1" fill-rule="nonzero"></path><path fill="#312783" d="M 133.386719 36.273438 L 133.386719 25.148438 C 128.523438 25.222656 121.890625 26.03125 116.96875 30.605469 C 113.230469 33.929688 110.445312 39.371094 110.121094 48.28125 L 110.140625 64.664062 C 110.140625 78.191406 97.054688 76.21875 94.402344 76.21875 L 94.402344 87.28125 C 98.148438 87.28125 108.828125 88.5 115.933594 81.90625 C 119.667969 78.585938 122.449219 73.140625 122.78125 64.230469 L 122.761719 47.847656 C 122.761719 38.730469 128.699219 36.65625 133.394531 36.273438 Z M 133.386719 36.273438 " fill-opacity="1" fill-rule="nonzero"></path></svg> 